<?xml version="1.0" encoding="UTF-8" standalone="no"?>
<svg
   xmlns:dc="http://purl.org/dc/elements/1.1/"
   xmlns:cc="http://creativecommons.org/ns#"
   xmlns:rdf="http://www.w3.org/1999/02/22-rdf-syntax-ns#"
   xmlns:svg="http://www.w3.org/2000/svg"
   xmlns="http://www.w3.org/2000/svg"
   xmlns:xlink="http://www.w3.org/1999/xlink"
   id="svg8"
   version="1.1"
   viewBox="0 0 20 20"
   height="20mm"
   width="20mm">
  <defs
     id="defs2">
    <linearGradient
       xlink:href="#SVGID_3_-9-1"
       id="linearGradient45259"
       gradientUnits="userSpaceOnUse"
       gradientTransform="matrix(1.1100806,0,0,1.1114859,-560.44872,-164.17748)"
       x1="589.70502"
       y1="180.09897"
       x2="589.70502"
       y2="295.26013" />
    <radialGradient
       gradientUnits="userSpaceOnUse"
       r="83.522301"
       cy="243.0439"
       cx="344"
       id="SVGID_3_-9-1"
       gradientTransform="matrix(0.9647203,0,0,0.98009214,128.66947,-26.958136)">
      <stop
         id="stop3383-10-0"
         style="stop-color:#F0F0F0"
         offset="0" />
      <stop
         id="stop3385-4-00"
         style="stop-color:#D4D1D2"
         offset="1" />
    </radialGradient>
    <linearGradient
       xlink:href="#SVGID_3_-9-1-6"
       id="linearGradient45259-6"
       gradientUnits="userSpaceOnUse"
       gradientTransform="matrix(1.1100806,0,0,1.1114859,-418.92808,-164.66131)"
       x1="589.70502"
       y1="180.09897"
       x2="589.70502"
       y2="295.26013" />
    <radialGradient
       gradientUnits="userSpaceOnUse"
       r="83.522301"
       cy="243.0439"
       cx="344"
       id="SVGID_3_-9-1-6"
       gradientTransform="matrix(0.9647203,0,0,0.98009214,128.66947,-26.958136)">
      <stop
         id="stop3383-10-0-4"
         style="stop-color:#F0F0F0"
         offset="0" />
      <stop
         id="stop3385-4-00-2"
         style="stop-color:#D4D1D2"
         offset="1" />
    </radialGradient>
    <radialGradient
       gradientUnits="userSpaceOnUse"
       r="83.522301"
       cy="243.0439"
       cx="344"
       id="SVGID_3_-9-1-8"
       gradientTransform="matrix(0.9647203,0,0,0.98009214,128.66947,-26.958136)">
      <stop
         id="stop3383-10-0-2"
         style="stop-color:#F0F0F0"
         offset="0" />
      <stop
         id="stop3385-4-00-6"
         style="stop-color:#D4D1D2"
         offset="1" />
    </radialGradient>
    <radialGradient
       gradientUnits="userSpaceOnUse"
       r="83.522301"
       cy="243.0439"
       cx="344"
       id="SVGID_3_-9-1-6-3"
       gradientTransform="matrix(0.9647203,0,0,0.98009214,128.66947,-26.958136)">
      <stop
         id="stop3383-10-0-4-7"
         style="stop-color:#F0F0F0"
         offset="0" />
      <stop
         id="stop3385-4-00-2-0"
         style="stop-color:#D4D1D2"
         offset="1" />
    </radialGradient>
    <radialGradient
       gradientUnits="userSpaceOnUse"
       r="83.522301"
       cy="243.0439"
       cx="344"
       id="SVGID_3_-9-1-86"
       gradientTransform="matrix(0.9647203,0,0,0.98009214,128.66947,-26.958136)">
      <stop
         id="stop3383-10-0-9"
         style="stop-color:#F0F0F0"
         offset="0" />
      <stop
         id="stop3385-4-00-24"
         style="stop-color:#D4D1D2"
         offset="1" />
    </radialGradient>
    <radialGradient
       gradientUnits="userSpaceOnUse"
       r="83.522301"
       cy="243.0439"
       cx="344"
       id="SVGID_3_-9-1-6-2"
       gradientTransform="matrix(0.9647203,0,0,0.98009214,128.66947,-26.958136)">
      <stop
         id="stop3383-10-0-4-8"
         style="stop-color:#F0F0F0"
         offset="0" />
      <stop
         id="stop3385-4-00-2-4"
         style="stop-color:#D4D1D2"
         offset="1" />
    </radialGradient>
  </defs>
  <metadata
     id="metadata5">
    <rdf:RDF>
      <cc:Work
         rdf:about="">
        <dc:format>image/svg+xml</dc:format>
        <dc:type
           rdf:resource="http://purl.org/dc/dcmitype/StillImage" />
        <dc:title></dc:title>
      </cc:Work>
    </rdf:RDF>
  </metadata>
  <g
     transform="translate(0,-277)"
     id="layer1">
    <g
       transform="matrix(1.1808271,0,0,1.180768,-56.080157,213.50226)"
       id="layer1-2">
      <path
         style="color:#000000;display:inline;overflow:visible;visibility:visible;fill:#9fa8da;fill-opacity:1;fill-rule:evenodd;stroke:none;stroke-width:0.06172764;marker:none;enable-background:accumulate"
         d="m 58.972501,70.709499 -8.973132,2.64e-4 c -1.386766,0 -2.504702,-1.107032 -2.504701,-2.493798 l -0.0024,-1.804405 3.440148,-1.460257 -0.004,0.837044 c -2e-6,0.823391 0.669692,1.486043 1.493084,1.48604 l 5.090763,-0.0052 z m 2.011407,-11.174428 -2.64e-4,-0.826201 c 0,-0.823392 -0.662086,-1.489271 -1.485474,-1.489271 l -5.101606,7.93e-4 -1.460257,-3.440146 8.980744,-0.0036 c 1.386764,0 2.511161,1.122257 2.511163,2.509022 l -0.004,1.789184 z"
         id="rect7870-3-8-7-1" />
      <path
         style="color:#000000;display:inline;overflow:visible;visibility:visible;fill:#3f51b5;fill-opacity:1;fill-rule:evenodd;stroke:none;stroke-width:0.06172764;marker:none;enable-background:accumulate"
         d="m 62.896555,70.516221 c -0.299839,0.125836 -0.628936,0.198551 -0.975627,0.198554 l -1.796796,-7.94e-4 -1.460254,-3.440147 0.833813,-0.0036 c 0.823391,3e-6 1.492499,-0.654481 1.492501,-1.477862 l -0.0084,-5.098375 3.447756,-1.463484 -0.004,8.983972 c -3e-6,1.040074 -0.629393,1.924507 -1.529014,2.301766 z m -15.403876,-5.24619 0.004,-8.983972 c -2e-6,-1.386766 1.114644,-2.507933 2.501409,-2.507933 l 1.789184,0.004 1.460256,3.440147 -0.826204,2.64e-4 c -0.823391,0 -1.48927,0.662083 -1.48927,1.485474 l 7.93e-4,5.101604 z"
         id="rect7870-3-8-7" />
      <rect
         style="color:#000000;display:inline;overflow:visible;visibility:visible;fill:#283593;fill-opacity:1;fill-rule:evenodd;stroke:none;stroke-width:0.06172764;marker:none;enable-background:accumulate"
         id="rect7870-3-8-4-5"
         width="7.9375"
         height="7.9375"
         x="51.990429"
         y="-66.214439"
         rx="1.1733695"
         ry="1.1733695"
         transform="scale(1,-1)" />
    </g>
  </g>
</svg>
